<svg width="18" height="18" viewBox="0 0 18 18" fill="none" xmlns="http://www.w3.org/2000/svg">
<path d="M3.74523 6.80101L3.74484 6.80064C3.68481 6.74336 3.65 6.66593 3.65 6.58206C3.65 6.49828 3.68477 6.42051 3.74586 6.36335C3.86972 6.24659 4.0685 6.24665 4.19229 6.36353L9.00021 10.9029L13.8081 6.36271L13.8081 6.3627C13.932 6.24577 14.1309 6.24577 14.2548 6.3627L14.2548 6.3627L14.2552 6.36307C14.3152 6.42034 14.35 6.49777 14.35 6.58165C14.35 6.66522 14.3154 6.74335 14.2548 6.80059L9.3782 11.4052L9.3782 11.4052L9.06843 11.6977L8.99968 11.7626L8.93103 11.6976L8.62225 11.4053L8.62214 11.4052L3.74523 6.80101Z" fill="black" stroke="black" stroke-width="0.2"/>
</svg>
