<svg width="190" height="87" viewBox="0 0 190 87" fill="none" xmlns="http://www.w3.org/2000/svg">
<path d="M149.943 60.758V60.2978C152.028 60.1137 151.864 58.4248 151.864 56.768V48.7441C151.864 47.0873 152.028 45.3704 149.943 45.1903V44.7461H156.222V45.1903C154.133 45.3704 154.306 47.0873 154.306 48.7441V56.768C154.306 58.4248 154.133 60.1137 156.222 60.2978V60.758H149.943Z" fill="#000000"/>
<path d="M142.315 60.758V60.2978C144.412 60.1137 144.232 58.4248 144.232 56.768V48.7441C144.232 47.0873 144.408 45.3704 142.315 45.1903V44.7461H148.603V45.1903C146.526 45.3704 146.694 47.0873 146.694 48.7441V56.768C146.694 58.4248 146.526 60.1137 148.603 60.2978V60.758H142.315Z" fill="#000000"/>
<path d="M134.728 60.758V60.2978C136.817 60.1137 136.636 58.4248 136.636 56.768V48.7441C136.636 47.0873 136.813 45.3704 134.728 45.1903V44.7461H141.007V45.1903C138.93 45.3704 139.098 47.0873 139.098 48.7441V56.768C139.098 58.4248 138.93 60.1137 141.007 60.2978V60.758H134.728Z" fill="#000000"/>
<path d="M127.532 58.8571C127.532 58.8571 128.613 60.2979 126.332 60.2979V60.7581H133.323V60.2979C131.95 60.2979 131.086 58.8932 131.086 58.8932L125.675 51.3254L129.129 47.0233C129.129 47.0233 130.594 45.1864 132.258 45.1864V44.7422H126.652V45.1864C128.365 45.1864 127.856 46.311 127.856 46.311L124.791 50.0808L122.105 46.311C122.105 46.311 121.393 45.1864 123.094 45.1864V44.7422H116.603V45.1864C117.967 45.1864 119.112 46.9553 119.112 46.9553L122.898 52.414L117.623 58.8892C117.623 58.8892 116.102 60.2939 114.718 60.2939V60.7541H120.817V60.2939C118.536 60.2939 119.62 58.8531 119.62 58.8531L123.79 53.6546L127.54 58.8531L127.532 58.8571Z" fill="#000000"/>
<path d="M95.9885 54.6267L96.4807 54.7027C97.013 56.4836 96.941 60.2975 101.815 60.2975C103.28 60.2975 105.081 58.8007 105.081 56.6877C105.081 52.4216 96.0565 53.6742 96.0565 48.4156C96.0565 45.8263 98.7299 43.9414 101.035 43.9414C102.18 43.9414 103.088 44.2456 103.952 44.4296C104.833 44.6257 105.289 44.7098 106.298 44.7098C106.298 46.1425 106.234 46.9429 106.402 48.3476H105.829C105.009 46.2265 103.84 44.8258 101.459 44.8258C99.6863 44.8258 98.3657 45.6823 98.3657 47.4511C98.3657 51.6972 107.382 50.1004 107.382 56.0954C107.382 57.9163 105.513 60.9578 101.851 60.9578C98.1896 60.9578 97.2811 59.8132 96.5528 59.8132C95.7524 59.8132 95.6323 60.9578 95.6323 60.9578H95.02L95.9885 54.6307V54.6267Z" fill="#000000"/>
<path d="M85.8154 60.758V60.2978C87.9125 60.1137 87.7324 58.4248 87.7324 56.768V48.7441C87.7324 47.0873 87.9125 45.3704 85.8154 45.1903V44.7461H92.0985V45.1903C90.0095 45.3704 90.1856 47.0873 90.1856 48.7441V56.768C90.1856 58.4248 90.0095 60.1137 92.0985 60.2978V60.758H85.8154Z" fill="#000000"/>
<path d="M79.1684 48.7442C79.1684 47.0873 79.3405 45.3705 77.2515 45.1904V44.7462H81.4735L81.4415 56.7681C81.4415 58.4249 81.2694 60.1138 83.3625 60.2979V60.7581H80.7252C78.9443 60.7581 79.1724 58.4289 79.1724 58.4289C77.6517 60.2058 75.9948 61.0502 73.8818 61.0502C69.8718 61.0502 67.8468 58.2328 67.8468 55.1153V48.7402C67.8468 47.0833 68.0149 45.3665 65.9219 45.1864V44.7422H70.3561V55.2954C70.3561 57.7526 71.9408 59.9617 74.6222 59.9617C76.4591 59.9617 78.0719 59.0372 79.1724 57.3164V48.7402L79.1684 48.7442Z" fill="#000000"/>
<path d="M55.9526 44.3301C60.4668 44.3301 64.1766 47.5357 64.1766 52.8343C64.1766 58.1329 60.4668 61.3305 55.9526 61.3305C51.4383 61.3305 47.7285 58.1329 47.7285 52.8343C47.7285 47.5357 51.4343 44.3301 55.9526 44.3301ZM55.9526 60.45C59.3543 60.45 61.3592 56.8563 61.3592 52.8343C61.3592 48.8123 59.3543 45.2185 55.9526 45.2185C52.5509 45.2185 50.5379 48.8123 50.5379 52.8343C50.5379 56.8563 52.5349 60.45 55.9526 60.45Z" fill="#000000"/>
<path d="M44.255 60.758H33.7778V60.2978C35.8629 60.1177 35.6908 58.4208 35.6908 56.768V48.7401C35.6908 47.0872 35.8629 45.3664 33.7778 45.1903V44.7461H40.0529V45.1903C37.9679 45.3664 38.144 47.0872 38.144 48.7401V57.2963C38.144 58.9491 37.9239 60.0176 39.9769 60.0176C42.3261 60.0176 42.8503 59.8375 46.0519 55.7115L46.5601 56.0157L44.251 60.758" fill="#000000"/>
<path d="M84.3669 16.028C84.607 14.3151 85.5995 13.3587 87.2163 13.3587C89.9256 13.3587 91.1622 15.8199 91.4304 18.097H93.1232C92.747 10.7014 88.9892 8.65234 86.8121 8.65234C84.3869 8.65234 82.538 10.1811 82.522 12.7504C82.522 15.0395 84.3669 16.028 84.3669 16.028Z" fill="#000000"/>
<path d="M91.2903 21.4669C90.7541 23.2918 89.5615 24.4244 88.1528 24.4244C86.9402 24.4244 86.0918 23.62 85.5715 22.8996C85.4194 23.1477 85.2153 23.6079 85.2153 24.4764C85.2153 26.2933 86.636 27.4218 87.9527 27.4218C89.1613 27.4218 92.4229 26.3413 93.1232 21.4629H91.2903V21.4669Z" fill="#000000"/>
<path d="M94.6317 21.4668H93.8634C93.4992 24.1201 92.4467 25.6489 91.6143 26.4573C91.6143 26.4573 92.0985 27.7979 93.0069 28.5183C93.9154 29.2346 94.5197 29.5308 94.6357 29.8189V21.4708L94.6317 21.4668Z" fill="#000000"/>
<path d="M90.9381 7.51571C90.9381 9.38863 91.6424 10.189 92.5429 11.9859C93.3273 13.5547 93.8595 16.3441 93.8595 18.0969H94.6279V0C94.4158 0.944466 90.9341 4.65029 90.9341 7.51571H90.9381Z" fill="#000000"/>
<path d="M105.633 16.028C105.393 14.3151 104.401 13.3587 102.784 13.3587C100.075 13.3587 98.8379 15.8199 98.5698 18.097H96.877C97.2531 10.7014 101.011 8.65234 103.188 8.65234C105.613 8.65234 107.462 10.1811 107.478 12.7504C107.478 15.0395 105.633 16.028 105.633 16.028Z" fill="#000000"/>
<path d="M98.7138 21.4669C99.25 23.2918 100.443 24.4244 101.851 24.4244C103.064 24.4244 103.912 23.62 104.433 22.8996C104.585 23.1477 104.789 23.6079 104.789 24.4764C104.789 26.2933 103.368 27.4218 102.051 27.4218C100.843 27.4218 97.5812 26.3413 96.8809 21.4629H98.7138V21.4669Z" fill="#000000"/>
<path d="M95.3722 21.4668H96.1405C96.5047 24.1201 97.5572 25.6489 98.3897 26.4573C98.3897 26.4573 97.9054 27.7979 96.997 28.5183C96.0885 29.2346 95.4842 29.5308 95.3682 29.8189V21.4708L95.3722 21.4668Z" fill="#000000"/>
<path d="M99.0663 7.51571C99.0663 9.38863 98.3619 10.189 97.4615 11.9859C96.6771 13.5547 96.1448 16.3441 96.1448 18.0969H95.3765V0C95.5886 0.944466 99.0703 4.65029 99.0703 7.51571H99.0663Z" fill="#000000"/>
<path d="M94.9998 20.822H100.122C100.663 20.822 101.131 19.7935 101.139 19.7855C101.131 19.7735 100.663 18.749 100.122 18.749H94.9998H89.9213C89.381 18.749 88.9128 19.7775 88.9048 19.7855C88.9128 19.7975 89.381 20.822 89.9213 20.822H94.9998Z" fill="#000000"/>
<path d="M14.5183 84V83.64L15.0583 83.604C15.4423 83.568 15.5863 83.508 15.5863 83.088V75.816C15.5863 75.396 15.4423 75.336 15.0583 75.3L14.5183 75.264V74.904H18.2263V75.264L17.6863 75.3C17.2903 75.336 17.1463 75.396 17.1463 75.816V83.532H19.8343C20.0383 83.532 20.0623 83.508 20.1943 83.364L22.0903 81.036H22.3423L21.4903 84H14.5183ZM27.1764 74.388L30.7164 83.124C30.8604 83.496 31.0284 83.568 31.4124 83.604L31.8804 83.64V84H28.1004V83.64L28.6644 83.604C29.0844 83.568 29.2164 83.496 29.0724 83.124L28.1604 80.832H24.9084L23.9964 83.124C23.8524 83.496 23.9964 83.568 24.3924 83.604L24.9564 83.64V84H22.2684V83.64L22.7244 83.604C23.1084 83.568 23.2764 83.496 23.4204 83.124L26.9724 74.388H27.1764ZM26.5404 76.728L25.1364 80.244H27.9324L26.5404 76.728ZM35.2381 84.144C34.3621 84.144 33.5101 84.048 32.7901 83.772L32.2621 80.88H32.5141L33.9541 83.16C34.1101 83.412 34.2781 83.532 34.4701 83.592C34.6981 83.652 34.9261 83.688 35.2741 83.688C36.4261 83.688 37.3141 83.124 37.3141 82.116C37.3141 81.084 36.5581 80.568 35.2621 80.112L34.6141 79.884C33.1741 79.368 32.3701 78.54 32.3701 77.184C32.3701 75.504 34.0021 74.676 35.6821 74.676C36.4021 74.676 37.0741 74.772 37.6501 75L38.1541 77.628H37.9021L36.4981 75.564C36.3061 75.276 36.2101 75.252 36.0181 75.204C35.8381 75.168 35.6581 75.156 35.4661 75.156C34.4941 75.156 33.6181 75.696 33.6181 76.608C33.6181 77.424 34.0261 77.94 35.0461 78.312L35.6941 78.54C37.3741 79.116 38.5861 79.788 38.5861 81.444C38.5861 83.124 36.9661 84.144 35.2381 84.144ZM46.3212 84.336L42.7092 75.78C42.5532 75.408 42.4092 75.336 42.0252 75.3L41.5572 75.264V74.904H45.3372V75.264L44.7732 75.3C44.3772 75.336 44.2212 75.408 44.3772 75.78L46.9692 82.044L49.5852 75.78C49.7292 75.408 49.5732 75.336 49.1772 75.3L48.6252 75.264V74.904H51.3132V75.264L50.8572 75.3C50.4732 75.336 50.3172 75.408 50.1612 75.78L46.5372 84.336H46.3212ZM51.7136 84V83.64L52.2536 83.604C52.6376 83.568 52.7816 83.508 52.7816 83.088V75.816C52.7816 75.396 52.6376 75.336 52.2536 75.3L51.7136 75.264V74.904H58.6136L59.0336 77.856H58.7816L57.3416 75.576C57.2096 75.384 57.1736 75.372 56.9456 75.372H54.3416V79.008H55.9376C56.0936 79.008 56.1416 78.972 56.1776 78.864L56.6936 77.376H56.9456V81.168H56.6936L56.1776 79.68C56.1296 79.548 56.0936 79.536 55.9376 79.536H54.3416V83.532H57.5096C57.7136 83.532 57.7256 83.508 57.8576 83.364L59.7656 81.036H60.0176L59.1656 84H51.7136ZM66.0019 84.144C62.9299 84.144 60.7819 82.296 60.7819 79.416C60.7819 76.536 63.0019 74.676 66.0739 74.676C67.0819 74.676 68.1739 74.832 68.9059 75.156L69.4339 78.024H69.1819L67.7179 75.78C67.4899 75.444 67.3339 75.348 67.0939 75.264C66.8299 75.18 66.4699 75.144 66.0019 75.144C64.2739 75.144 62.5219 76.188 62.5219 79.104C62.5219 81.648 63.7459 83.664 66.1459 83.664C66.6739 83.664 67.3819 83.604 67.8979 83.376V80.76C67.8979 80.364 67.7419 80.268 67.3699 80.256L66.1579 80.208V79.776H70.5379V80.256L69.4579 80.268V82.656L69.5059 83.496C68.6179 83.844 67.1539 84.144 66.0019 84.144ZM75.3873 74.388L78.9273 83.124C79.0713 83.496 79.2393 83.568 79.6233 83.604L80.0913 83.64V84H76.3113V83.64L76.8753 83.604C77.2953 83.568 77.4273 83.496 77.2833 83.124L76.3713 80.832H73.1193L72.2073 83.124C72.0633 83.496 72.2073 83.568 72.6033 83.604L73.1673 83.64V84H70.4793V83.64L70.9353 83.604C71.3193 83.568 71.4873 83.496 71.6313 83.124L75.1833 74.388H75.3873ZM74.7513 76.728L73.3473 80.244H76.1433L74.7513 76.728ZM83.4491 84.144C82.5731 84.144 81.7211 84.048 81.0011 83.772L80.4731 80.88H80.7251L82.1651 83.16C82.3211 83.412 82.4891 83.532 82.6811 83.592C82.9091 83.652 83.1371 83.688 83.4851 83.688C84.6371 83.688 85.5251 83.124 85.5251 82.116C85.5251 81.084 84.7691 80.568 83.4731 80.112L82.8251 79.884C81.3851 79.368 80.5811 78.54 80.5811 77.184C80.5811 75.504 82.2131 74.676 83.8931 74.676C84.6131 74.676 85.2851 74.772 85.8611 75L86.3651 77.628H86.1131L84.7091 75.564C84.5171 75.276 84.4211 75.252 84.2291 75.204C84.0491 75.168 83.8691 75.156 83.6771 75.156C82.7051 75.156 81.8291 75.696 81.8291 76.608C81.8291 77.424 82.2371 77.94 83.2571 78.312L83.9051 78.54C85.5851 79.116 86.7971 79.788 86.7971 81.444C86.7971 83.124 85.1771 84.144 83.4491 84.144ZM96.2949 84.144C93.2229 84.144 91.0749 82.296 91.0749 79.416C91.0749 76.536 93.2949 74.676 96.3669 74.676C97.3749 74.676 98.4669 74.832 99.1989 75.156L99.7269 78.024H99.4749L98.0109 75.78C97.7829 75.444 97.6269 75.348 97.3869 75.264C97.1229 75.18 96.7629 75.144 96.2949 75.144C94.5669 75.144 92.8149 76.188 92.8149 79.104C92.8149 81.648 94.0389 83.664 96.4389 83.664C96.9669 83.664 97.6749 83.604 98.1909 83.376V80.76C98.1909 80.364 98.0349 80.268 97.6629 80.256L96.4509 80.208V79.776H100.831V80.256L99.7509 80.268V82.656L99.7989 83.496C98.9109 83.844 97.4469 84.144 96.2949 84.144ZM101.741 84V83.64L102.281 83.604C102.665 83.568 102.809 83.508 102.809 83.088V75.816C102.809 75.396 102.665 75.336 102.281 75.3L101.741 75.264V74.904H105.353C107.621 74.904 109.193 75.432 109.193 77.1C109.193 78.252 108.389 79.08 106.721 79.356L110.789 84H108.821L104.957 79.548H104.369V83.088C104.369 83.508 104.513 83.568 104.909 83.604L105.449 83.64V84H101.741ZM104.369 79.092H105.257C106.709 79.092 107.477 78.504 107.477 77.22C107.477 75.936 106.709 75.348 105.257 75.348H104.369V79.092ZM115.161 74.388L118.701 83.124C118.845 83.496 119.013 83.568 119.397 83.604L119.865 83.64V84H116.085V83.64L116.649 83.604C117.069 83.568 117.201 83.496 117.057 83.124L116.145 80.832H112.893L111.981 83.124C111.837 83.496 111.981 83.568 112.377 83.604L112.941 83.64V84H110.253V83.64L110.709 83.604C111.093 83.568 111.261 83.496 111.405 83.124L114.957 74.388H115.161ZM114.525 76.728L113.121 80.244H115.917L114.525 76.728ZM120.293 84V83.64L120.833 83.604C121.229 83.568 121.373 83.508 121.373 83.088V76.2L120.221 74.928V74.904H122.249L128.129 81.264V75.816C128.129 75.396 127.973 75.336 127.589 75.3L127.049 75.264V74.904H129.761V75.264L129.221 75.3C128.837 75.336 128.693 75.396 128.693 75.816V84.216H128.645L121.937 76.824V83.088C121.937 83.508 122.081 83.568 122.477 83.604L123.005 83.64V84H120.293ZM130.862 84V83.64L131.402 83.604C131.786 83.568 131.93 83.508 131.93 83.088V75.816C131.93 75.396 131.786 75.336 131.402 75.3L130.862 75.264V74.904H134.33C137.474 74.904 139.898 76.368 139.898 79.392C139.898 82.416 137.474 84 134.402 84H130.862ZM133.49 83.556H134.33C136.562 83.556 138.134 82.512 138.134 79.716C138.134 76.644 136.766 75.348 134.27 75.348H133.49V83.556ZM144.186 84V83.64L144.726 83.604C145.11 83.568 145.254 83.508 145.254 83.088V75.816C145.254 75.396 145.11 75.336 144.726 75.3L144.186 75.264V74.904H148.05C150.246 74.904 151.986 75.384 151.986 77.328C151.986 79.284 150.246 79.86 148.05 79.86H147.114V79.404H147.954C149.49 79.404 150.258 78.828 150.258 77.388C150.258 75.936 149.502 75.348 147.954 75.348H146.814V83.088C146.814 83.508 146.958 83.568 147.354 83.58L148.35 83.616V84H144.186ZM152.788 84V83.64L153.328 83.604C153.712 83.568 153.856 83.508 153.856 83.088V75.816C153.856 75.396 153.712 75.336 153.328 75.3L152.788 75.264V74.904H156.4C158.668 74.904 160.24 75.432 160.24 77.1C160.24 78.252 159.436 79.08 157.768 79.356L161.836 84H159.868L156.004 79.548H155.416V83.088C155.416 83.508 155.56 83.568 155.956 83.604L156.496 83.64V84H152.788ZM155.416 79.092H156.304C157.756 79.092 158.524 78.504 158.524 77.22C158.524 75.936 157.756 75.348 156.304 75.348H155.416V79.092ZM162.128 84V83.64L162.668 83.604C163.052 83.568 163.196 83.508 163.196 83.088V75.816C163.196 75.396 163.052 75.336 162.668 75.3L162.128 75.264V74.904H165.836V75.264L165.296 75.3C164.9 75.336 164.756 75.396 164.756 75.816V83.088C164.756 83.508 164.9 83.568 165.296 83.604L165.836 83.64V84H162.128ZM166.389 84V83.64L166.846 83.604C167.194 83.58 167.494 83.424 167.746 83.124L170.65 79.596L167.974 75.78C167.746 75.456 167.554 75.336 167.182 75.3L166.726 75.264V74.904H170.626V75.264L170.062 75.312C169.666 75.348 169.534 75.456 169.762 75.78L171.622 78.42L173.794 75.78C174.046 75.48 173.998 75.348 173.602 75.312L173.038 75.264V74.904H175.786V75.264L175.33 75.3C174.97 75.324 174.67 75.48 174.418 75.78L171.91 78.84L174.922 83.124C175.15 83.448 175.342 83.568 175.726 83.604L176.17 83.64V84H172.27V83.64L172.834 83.592C173.23 83.556 173.362 83.448 173.134 83.124L170.938 80.004L168.382 83.124C168.13 83.424 168.178 83.556 168.574 83.592L169.138 83.64V84H166.389Z" fill="#000000"/>
</svg>
